<?xml version="1.0" encoding="utf-8"?>
<!-- Generator: Adobe Illustrator 24.3.0, SVG Export Plug-In . SVG Version: 6.00 Build 0)  -->
<svg version="1.1" id="Capa_1" xmlns="http://www.w3.org/2000/svg" xmlns:xlink="http://www.w3.org/1999/xlink" x="0px" y="0px"
	 viewBox="0 0 512 512" style="enable-background:new 0 0 512 512;" xml:space="preserve">
<style type="text/css">
	.st0{fill:#FFFFFF;stroke:#212121;stroke-miterlimit:10;}
	.st1{fill:#FFFFFF;stroke:#D0D0D0;stroke-miterlimit:10;}
</style>
<g>
	<path class="st0" d="M415,222c-8.3,0-15,6.7-15,15v220c0,13.8-11.2,25-25,25H55c-13.8,0-25-11.2-25-25V137c0-13.8,11.2-25,25-25
		h220c8.3,0,15-6.7,15-15s-6.7-15-15-15H55c-30.3,0-55,24.7-55,55v320c0,30.3,24.7,55,55,55h320c30.3,0,55-24.7,55-55V237
		C430,228.7,423.3,222,415,222L415,222z"/>
	<path class="st1" d="M501.8,38.5l-28.3-28.3c-13.6-13.6-35.9-13.6-49.5,0L197.7,236.5c-2.1,2.1-3.5,4.8-4.1,7.7l-14.1,70.7
		c-1,4.9,0.6,10,4.1,13.5c2.8,2.8,6.7,4.4,10.6,4.4c1,0,2-0.1,2.9-0.3l70.7-14.1c2.9-0.6,5.6-2,7.7-4.1L501.8,88c0,0,0,0,0,0
		C515.4,74.4,515.4,52.2,501.8,38.5L501.8,38.5z M257.5,289.9l-44.2,8.8l8.8-44.2L406.3,70.3l35.4,35.4L257.5,289.9z M480.6,66.8
		l-17.7,17.7l-35.4-35.4l17.7-17.7c2-2,5.1-2,7.1,0l28.3,28.3C482.5,61.7,482.5,64.9,480.6,66.8z"/>
</g>
</svg>
