<svg id="Layer_1" height="512" viewBox="0 0 512 512" width="512" xmlns="http://www.w3.org/2000/svg" data-name="Layer 1"><path d="m328.9 429.246a16 16 0 0 1 -16 16h-113.8a16 16 0 0 1 0-32h113.8a16 16 0 0 1 16 16zm-199.1-16h-113.8a16 16 0 0 0 0 32h113.8a16 16 0 1 0 0-32zm366.2 0h-113.8a16 16 0 1 0 0 32h113.8a16 16 0 0 0 0-32zm-366.2-69.3h-113.8a16 16 0 0 0 0 32h113.8a16 16 0 0 0 0-32zm0-69.3h-113.8a16 16 0 0 0 0 32h113.8a16 16 0 0 0 0-32zm366.2 69.3h-113.8a16 16 0 1 0 0 32h113.8a16 16 0 0 0 0-32zm0-69.3h-113.8a16 16 0 1 0 0 32h113.8a16 16 0 0 0 0-32zm-113.8-37.3h113.8a16 16 0 0 0 0-32h-113.8a16 16 0 1 0 0 32zm-69.3 106.6h-113.8a16 16 0 0 0 0 32h113.8a16 16 0 0 0 0-32zm0-69.3h-113.8a16 16 0 0 0 0 32h113.8a16 16 0 0 0 0-32zm0-69.3h-113.8a16 16 0 0 0 0 32h113.8a16 16 0 0 0 0-32zm0-69.3h-113.8a16 16 0 0 0 0 32h113.8a16 16 0 0 0 0-32zm0-69.3h-113.8a16 16 0 0 0 0 32h113.8a16 16 0 0 0 0-32z"/></svg>